# xmcd CD database file
#
# Track frame offsets:
#	150
#	33481
#	56412
#	88570
#	120892
#	133741
#	159651
#	179084
#	203600
#	228811
#	249559
#	266697
#
# Disc length: 3971 seconds
#
# Revision: 0
# Processed by: cddbd v1.5.2PL0 Copyright (c) Steve Scherf et al.
# Submitted via: CDex 1.70beta2
#
DISCID=9c0f810c
DTITLE=Tony Wilson and Nick McGowan - Lonely Avenue
DYEAR=2003
DGENRE=Blues
TTITLE0=Warm Valley
TTITLE1=Frankie and Johnny
TTITLE2=Equinox
TTITLE3=Lucky So and So
TTITLE4=Twos Blues
TTITLE5=Hymn2
TTITLE6=The Mooch
TTITLE7=Central Park West
TTITLE8=I'm Gonna Go Fishin'
TTITLE9=Come Sunday
TTITLE10=Isfahan
TTITLE11=Lonely Avenue
EXTD=YEAR: 2003
EXTT0=
EXTT1=
EXTT2=
EXTT3=
EXTT4=
EXTT5=
EXTT6=
EXTT7=
EXTT8=
EXTT9=
EXTT10=
EXTT11=
PLAYORDER=
